<svg width="16" height="16" viewBox="0 0 16 16" fill="none" xmlns="http://www.w3.org/2000/svg">
<path d="M0.5 1.5C0.5 0.947716 0.947715 0.5 1.5 0.5H13.5C14.0523 0.5 14.5 0.947715 14.5 1.5V13.5C14.5 14.0523 14.0523 14.5 13.5 14.5H1.5C0.947716 14.5 0.5 14.0523 0.5 13.5V1.5Z" fill="#FFF5BC" stroke="#212121"/>
<path d="M9.2831 3C10.4951 3.30966 11.1011 4.02248 11.1011 5.13848L11.1011 6.05365C11.1011 6.70056 11.4007 7.02402 12 7.02402V7.97598C11.4142 7.97598 11.1146 8.28104 11.1011 8.89116V9.86612C11.1011 10.4333 10.9496 10.8917 10.6466 11.2412C10.3436 11.5907 9.8891 11.8436 9.2831 12L9.0003 11.2596C9.25617 11.1737 9.44975 11.0235 9.58105 10.8089C9.71235 10.5973 9.78137 10.303 9.7881 9.92591L9.7881 8.96014C9.7881 8.26725 10.0894 7.7813 10.692 7.5023C10.0894 7.22024 9.7881 6.73122 9.7881 6.03526V5.0603C9.77127 4.34287 9.50867 3.90445 9.0003 3.74502L9.2831 3Z" fill="#1656A8"/>
<path d="M5.7169 12C4.5049 11.6903 3.8989 10.9775 3.8989 9.86152V8.94635C3.8989 8.29944 3.59927 7.97598 3 7.97598V7.02402C3.5858 7.02402 3.88543 6.71896 3.8989 6.10884V5.13388C3.8989 4.56668 4.0504 4.10833 4.3534 3.75881C4.6564 3.4093 5.1109 3.15636 5.7169 3L5.9997 3.74042C5.74383 3.82626 5.55025 3.97649 5.41895 4.19111C5.28765 4.40266 5.21863 4.69699 5.2119 5.07409V6.03986C5.2119 6.73275 4.91058 7.2187 4.30795 7.4977C4.91058 7.77976 5.2119 8.26878 5.2119 8.96474V9.9397C5.22873 10.6571 5.49133 11.0956 5.9997 11.255L5.7169 12Z" fill="#1656A8"/>
</svg>
