<svg width="16" height="16" viewBox="0 0 16 16" fill="none" xmlns="http://www.w3.org/2000/svg">
<path d="M0.5 1.5C0.5 0.947716 0.947715 0.5 1.5 0.5H13.5C14.0523 0.5 14.5 0.947715 14.5 1.5V13.5C14.5 14.0523 14.0523 14.5 13.5 14.5H1.5C0.947716 14.5 0.5 14.0523 0.5 13.5V1.5Z" fill="#FFF5BC" stroke="#181818"/>
<path d="M5 7H7V8H5V7Z" fill="#1656A8"/>
<path d="M4 7H5V10H4V7Z" fill="#1656A8"/>
<path d="M5 9H7V10H5V9Z" fill="#1656A8"/>
<path d="M8 5H9V10H8V5Z" fill="#1656A8"/>
<path d="M9 7H11V8H9V7Z" fill="#1656A8"/>
<path d="M10 7H11V10H10V7Z" fill="#1656A8"/>
</svg>
