<svg width="16" height="16" viewBox="0 0 16 16" fill="none" xmlns="http://www.w3.org/2000/svg">
<path d="M0.5 1.5C0.5 0.947716 0.947715 0.5 1.5 0.5H13.5C14.0523 0.5 14.5 0.947715 14.5 1.5V13.5C14.5 14.0523 14.0523 14.5 13.5 14.5H1.5C0.947716 14.5 0.5 14.0523 0.5 13.5V1.5Z" fill="#FFF5BC" stroke="#181818"/>
<path d="M6.5 8.99974C6.5 9.82816 5.82843 10.4997 5 10.4997C4.17157 10.4997 3.5 9.82816 3.5 8.99974C3.5 8.17131 4.17157 7.49974 5 7.49974C5.82843 7.49974 6.5 8.17131 6.5 8.99974Z" fill="#83CAFF"/>
<path d="M11.5 8.99976C11.5 9.82818 10.8284 10.4998 10 10.4998C9.17157 10.4998 8.5 9.82818 8.5 8.99976C8.5 8.17133 9.17157 7.49976 10 7.49976C10.8284 7.49976 11.5 8.17133 11.5 8.99976Z" fill="#B4DEFF"/>
<path d="M8.5 5C8.5 5.82843 7.82843 6.5 7 6.5C6.17157 6.5 5.5 5.82843 5.5 5C5.5 4.17157 6.17157 3.5 7 3.5C7.82843 3.5 8.5 4.17157 8.5 5Z" fill="#F5FAFF"/>
<path d="M6.5 8.99974C6.5 9.82816 5.82843 10.4997 5 10.4997C4.17157 10.4997 3.5 9.82816 3.5 8.99974C3.5 8.17131 4.17157 7.49974 5 7.49974C5.82843 7.49974 6.5 8.17131 6.5 8.99974Z" stroke="#1656A8"/>
<path d="M11.5 8.99976C11.5 9.82818 10.8284 10.4998 10 10.4998C9.17157 10.4998 8.5 9.82818 8.5 8.99976C8.5 8.17133 9.17157 7.49976 10 7.49976C10.8284 7.49976 11.5 8.17133 11.5 8.99976Z" stroke="#1656A8"/>
<path d="M8.5 5C8.5 5.82843 7.82843 6.5 7 6.5C6.17157 6.5 5.5 5.82843 5.5 5C5.5 4.17157 6.17157 3.5 7 3.5C7.82843 3.5 8.5 4.17157 8.5 5Z" stroke="#1656A8"/>
</svg>
