<svg width="16" height="16" viewBox="0 0 16 16" fill="none" xmlns="http://www.w3.org/2000/svg">
<path d="M0.5 1.5C0.5 0.947716 0.947715 0.5 1.5 0.5H13.5C14.0523 0.5 14.5 0.947715 14.5 1.5V13.5C14.5 14.0523 14.0523 14.5 13.5 14.5H1.5C0.947716 14.5 0.5 14.0523 0.5 13.5V1.5Z" fill="#FFF5BC" stroke="#181818"/>
<path d="M8 9H9V10H8V9Z" fill="#1656A8"/>
<path d="M4 7H6V8H4V7Z" fill="#1656A8"/>
<path d="M4 9H6V10H4V9Z" fill="#1656A8"/>
<path d="M7 6H8V10H7V6Z" fill="#1656A8"/>
<path d="M7 7H9V8H7V7Z" fill="#1656A8"/>
<path d="M10 7H11V10H10V7Z" fill="#1656A8"/>
<path d="M11 7H12V8H11V7Z" fill="#1656A8"/>
<path d="M4 8H5L6 9H5L4 8Z" fill="#1656A8"/>
</svg>
