<svg width="16" height="16" viewBox="0 0 16 16" fill="none" xmlns="http://www.w3.org/2000/svg">
<path d="M0.5 3.5H14.5V13.5C14.5 14.0523 14.0523 14.5 13.5 14.5H1.5C0.947716 14.5 0.5 14.0523 0.5 13.5V3.5Z" fill="#FFF5BC" stroke="#1656A7"/>
<path fill-rule="evenodd" clip-rule="evenodd" d="M4.61609 6.48055C4.99543 6.15872 5.4765 6 6.04592 6C6.63937 6 7.12523 6.14807 7.48155 6.45912C7.83779 6.7701 8.00624 7.19571 8.00624 7.71658C8.00624 7.98849 7.91109 8.24892 7.72771 8.49573C7.60567 8.66246 7.45316 8.80144 7.27128 8.91213C7.4845 9.01614 7.66102 9.15472 7.79797 9.32831C7.99954 9.58034 8.09592 9.88348 8.09592 10.2299C8.09592 10.7594 7.91011 11.195 7.52425 11.5198C7.14072 11.8427 6.64405 12 6.05 12C5.45761 12 4.96061 11.8487 4.57426 11.5372C4.1888 11.224 4 10.8111 4 10.314V10.1711H5.09156V10.314C5.09156 10.5765 5.18162 10.772 5.34881 10.9161C5.51565 11.0599 5.74313 11.1375 6.05 11.1375C6.38173 11.1375 6.61045 11.0572 6.7635 10.9158C6.91866 10.7725 7.00844 10.5563 7.00844 10.2452C7.00844 9.94903 6.91229 9.74277 6.74216 9.6038C6.57035 9.46345 6.31104 9.38078 5.93867 9.37586H5.20664V8.51337H5.93851C6.2624 8.50852 6.49722 8.42943 6.66324 8.29046C6.82896 8.15175 6.91876 7.96095 6.91876 7.7013C6.91876 7.39425 6.83682 7.19063 6.70235 7.06413C6.57056 6.94016 6.36253 6.86631 6.04592 6.86631C5.75785 6.86631 5.54319 6.94252 5.3838 7.08565C5.22625 7.22704 5.14048 7.41951 5.14048 7.67838V7.82124H4.05299V7.67838C4.05299 7.20255 4.23977 6.79962 4.61609 6.48055ZM10.6822 6.04966H11V11.9236H9.90844V7.28235L8.38792 7.80565V6.85685L10.6822 6.04966Z" fill="#1656A8"/>
<path d="M0.500366 1.5C0.500366 0.947715 0.948081 0.5 1.50037 0.5H13.5001C14.0523 0.5 14.5 0.947636 14.5001 1.49987L14.5004 3.5H0.500366V1.5Z" fill="#B4DEFF" stroke="#1656A7"/>
</svg>
