<svg width="16" height="16" viewBox="0 0 16 16" fill="none" xmlns="http://www.w3.org/2000/svg">
<path d="M3.5 3.5H14.5V13.5C14.5 14.0523 14.0523 14.5 13.5 14.5H3.5V3.5Z" fill="#FFF5BC" stroke="#1656A7"/>
<path d="M0.499988 3.49988H3.49999V0.500049L13.5 0.499893C14.0523 0.499885 14.5 0.947602 14.5 1.49989L14.5 3.50005L0.499988 3.49988Z" fill="#B4DEFF"/>
<path d="M1.49989 14.4999C0.947623 14.4999 0.499941 14.0522 0.499943 13.4999L0.499988 3.49988V1.49993C0.499988 0.947628 0.947738 0.499903 1.50005 0.499935L3.49999 0.500049V14.5L1.49989 14.4999Z" fill="#B4DEFF"/>
<path d="M0.499988 3.49988L14.5 3.50005L14.5 1.49989C14.5 0.947602 14.0523 0.499885 13.5 0.499893L3.49999 0.500049M0.499988 3.49988L0.499943 13.4999C0.499941 14.0522 0.947623 14.4999 1.49989 14.4999L3.49999 14.5V0.500049M0.499988 3.49988V1.49993C0.499988 0.947628 0.947738 0.499903 1.50005 0.499935L3.49999 0.500049M0.499988 3.49988H3.49999V0.500049" stroke="#1656A7"/>
<path d="M7.5 1.5V13.5M11.5002 1.5V13.5M13.5 11.5H1.5M13.5 7.5H1.5" stroke="#1656A7" stroke-linecap="square"/>
</svg>
