<svg width="16" height="16" viewBox="0 0 16 16" fill="none" xmlns="http://www.w3.org/2000/svg">
<path d="M0.5 1.5C0.5 0.947716 0.947715 0.5 1.5 0.5H13.5C14.0523 0.5 14.5 0.947715 14.5 1.5V13.5C14.5 14.0523 14.0523 14.5 13.5 14.5H1.5C0.947716 14.5 0.5 14.0523 0.5 13.5V1.5Z" fill="#FFF5BC" stroke="#1656A7"/>
<circle cx="7.5" cy="7.5" r="4" fill="white" stroke="#1656A8" stroke-linejoin="round"/>
<path d="M7.5 5C7.91113 5 8.31591 5.10139 8.67849 5.2952C9.04107 5.489 9.35026 5.76923 9.57867 6.11107C9.80708 6.45291 9.94766 6.84581 9.98796 7.25496C10.0283 7.6641 9.96703 8.07688 9.8097 8.45671C9.65237 8.83654 9.40379 9.17171 9.08598 9.43253C8.76818 9.69334 8.39095 9.87176 7.98773 9.95196C7.5845 10.0322 7.16771 10.0117 6.77429 9.89235C6.38086 9.77301 6.02294 9.55848 5.73223 9.26777L7.5 7.5V5Z" fill="#B4DEFF"/>
<path d="M7.5 5.5V7.5L6 9" stroke="#1656A8" stroke-linecap="square" stroke-linejoin="round"/>
</svg>
