<svg width="24" height="24" viewBox="0 0 24 24" fill="none" xmlns="http://www.w3.org/2000/svg">
<path d="M1.5 13.4362L1.2689 12.8287C1.04373 12.9143 0.884399 13.1175 0.854893 13.3566C0.825388 13.5957 0.930547 13.8315 1.12814 13.9693L1.5 13.4362ZM6.7004 11.2161L7.15215 11.6834L7.15215 11.6834L6.7004 11.2161ZM8.3349 9.44679L8.85432 9.83757L8.85433 9.83757L8.3349 9.44679ZM10.184 7.91487L9.82628 7.37213L9.82628 7.37213L10.184 7.91487ZM12.7925 5.04256L13.3595 5.36033L13.3595 5.36033L12.7925 5.04256ZM19.4623 7.65955L20.0887 7.48611L20.0887 7.48611L19.4623 7.65955ZM22.5 16.8191L22.1358 17.3575C22.3679 17.5145 22.6745 17.5051 22.8965 17.3342C23.1186 17.1632 23.2061 16.8691 23.1136 16.6046L22.5 16.8191ZM15.7311 17.5213L16.2576 17.9025L16.2576 17.9025L15.7311 17.5213ZM12.5613 21.3191L12.1211 20.8409L12.1211 20.8409L12.5613 21.3191ZM10.7123 22.5L10.1543 22.8335C10.3022 23.0809 10.5954 23.2014 10.8745 23.1294L10.7123 22.5ZM6.91509 16.9468L6.55654 17.489L6.55654 17.489L6.91509 16.9468ZM5.25969 15.5092C4.97683 15.7303 4.92672 16.1388 5.14777 16.4216C5.36881 16.7045 5.77731 16.7546 6.06017 16.5336L5.65993 16.0214L5.25969 15.5092ZM9.58919 12.5107L9.07186 12.1172L9.07186 12.1172L9.58919 12.5107ZM13.5019 5.56708L14.1451 5.66046L14.1451 5.66046L13.5019 5.56708ZM1.5 13.4362L1.7311 14.0437C2.58964 13.7171 3.82366 13.2297 4.88151 12.7879C5.40977 12.5672 5.89963 12.3556 6.27862 12.1799C6.46744 12.0923 6.63553 12.0105 6.76975 11.9388C6.87592 11.8821 7.03998 11.7919 7.15215 11.6834L6.7004 11.2161L6.24866 10.7487C6.28819 10.7105 6.28857 10.722 6.15725 10.7922C6.05397 10.8473 5.91077 10.9175 5.7317 11.0005C5.37493 11.166 4.90272 11.3702 4.38045 11.5883C3.33724 12.0241 2.11633 12.5063 1.2689 12.8287L1.5 13.4362ZM6.7004 11.2161L7.15215 11.6834C7.5164 11.3314 8.44685 10.3792 8.85432 9.83757L8.3349 9.44679L7.81548 9.05602C7.47528 9.50823 6.61082 10.3987 6.24866 10.7487L6.7004 11.2161ZM8.3349 9.44679L8.85433 9.83757C9.22098 9.3502 9.79834 8.94746 10.5416 8.45761L10.184 7.91487L9.82628 7.37213C9.11675 7.83973 8.3402 8.35855 7.81548 9.05602L8.3349 9.44679ZM10.184 7.91487L10.5416 8.45761C10.9793 8.16917 11.5711 7.58823 12.0822 7.02193C12.5966 6.45197 13.1078 5.80943 13.3595 5.36033L12.7925 5.04256L12.2254 4.72479C12.0479 5.04164 11.618 5.5959 11.1171 6.15093C10.6129 6.70961 10.115 7.18185 9.82628 7.37213L10.184 7.91487ZM12.7925 5.04256L13.3595 5.36033C13.5713 4.98232 14.0595 4.1321 14.6412 3.38252C14.933 3.00646 15.2309 2.67861 15.512 2.45059C15.8085 2.21 16.0011 2.15 16.0943 2.15V1.5V0.85C15.5519 0.85 15.0676 1.13708 14.6929 1.44104C14.3028 1.75756 13.9352 2.17174 13.6141 2.58558C12.9699 3.41578 12.4428 4.33684 12.2254 4.72479L12.7925 5.04256ZM16.0943 1.5V2.15C16.0674 2.15 16.0944 2.13979 16.1868 2.20437C16.2779 2.26811 16.3956 2.3794 16.535 2.55204C16.8138 2.89748 17.1134 3.40531 17.4108 4.01499C18.0026 5.22837 18.5303 6.72946 18.8358 7.83299L19.4623 7.65955L20.0887 7.48611C19.7669 6.32367 19.2132 4.74499 18.5792 3.44509C18.2636 2.79812 17.9142 2.19094 17.5466 1.73551C17.3627 1.50773 17.1578 1.29712 16.9319 1.13909C16.7071 0.981883 16.4225 0.85 16.0943 0.85V1.5ZM19.4623 7.65955L18.8358 7.83299C19.3448 9.67148 21.086 14.7444 21.8864 17.0337L22.5 16.8191L23.1136 16.6046C22.3071 14.2981 20.5835 9.27316 20.0887 7.48611L19.4623 7.65955ZM22.5 16.8191L22.8642 16.2808C22.5128 16.043 21.9361 15.6915 21.3274 15.3965C20.7497 15.1165 20.028 14.8287 19.4292 14.8287V15.4787V16.1287C19.7022 16.1287 20.1856 16.2877 20.7604 16.5663C21.304 16.8298 21.8268 17.1485 22.1358 17.3575L22.5 16.8191ZM19.4292 15.4787V14.8287C18.7513 14.8287 17.9542 15.0606 17.2176 15.445C16.4746 15.8327 15.7375 16.4042 15.2047 17.14L15.7311 17.5213L16.2576 17.9025C16.6493 17.3617 17.2164 16.912 17.819 16.5975C18.4279 16.2798 19.0176 16.1287 19.4292 16.1287V15.4787ZM15.7311 17.5213L15.2047 17.14C14.2857 18.4089 12.7648 20.2484 12.1211 20.8409L12.5613 21.3191L13.0015 21.7974C13.7446 21.1133 15.3275 19.1868 16.2576 17.9025L15.7311 17.5213ZM12.5613 21.3191L12.1211 20.8409C11.4556 21.4536 10.8906 21.7828 10.55 21.8706L10.7123 22.5L10.8745 23.1294C11.5245 22.9619 12.2803 22.4613 13.0015 21.7974L12.5613 21.3191ZM10.7123 22.5L11.2702 22.1665C11.0697 21.831 10.854 21.4053 10.601 20.9071C10.3525 20.4177 10.0738 19.8706 9.76075 19.3271C9.14221 18.2534 8.34569 17.1136 7.27364 16.4046L6.91509 16.9468L6.55654 17.489C7.36657 18.0247 8.03939 18.9434 8.6343 19.9761C8.92792 20.4858 9.19206 21.0038 9.4419 21.4958C9.68729 21.979 9.92562 22.4509 10.1543 22.8335L10.7123 22.5ZM6.91509 16.9468L7.27364 16.4046C5.53371 15.254 2.93773 13.6465 1.87186 12.9031L1.5 13.4362L1.12814 13.9693C2.19749 14.7152 4.89418 16.3896 6.55654 17.489L6.91509 16.9468ZM5.65993 16.0214L6.06017 16.5336C6.58434 16.1239 7.41034 15.4562 8.19073 14.7795C8.95315 14.1184 9.72902 13.4005 10.1065 12.9043L9.58919 12.5107L9.07186 12.1172C8.78898 12.4891 8.11753 13.1223 7.33905 13.7973C6.57856 14.4568 5.77012 15.1104 5.25969 15.5092L5.65993 16.0214ZM9.58919 12.5107L10.1065 12.9043C10.5249 12.3543 11.4418 11.1152 12.2945 9.7481C12.7207 9.06471 13.1366 8.34039 13.4671 7.64806C13.793 6.96524 14.0563 6.27195 14.1451 5.66046L13.5019 5.56708L12.8586 5.4737C12.7979 5.89169 12.6006 6.44547 12.2939 7.08805C11.9917 7.72114 11.6028 8.40059 11.1915 9.06011C10.3689 10.3788 9.47891 11.5821 9.07186 12.1172L9.58919 12.5107ZM13.5019 5.56708L14.1451 5.66046C14.4197 3.76877 14.8992 2.92658 15.4097 2.5453L15.0207 2.02452L14.6318 1.50375C13.6894 2.20757 13.1452 3.49965 12.8586 5.4737L13.5019 5.56708ZM6.74955 11.0746L6.36805 11.6009L8.61333 13.2285L8.99484 12.7022L9.37634 12.176L7.13106 10.5483L6.74955 11.0746Z" fill="white"/>
</svg>
